<svg width="97" height="111" viewBox="0 0 97 111" fill="none" xmlns="http://www.w3.org/2000/svg">
<rect x="27.7143" y="27.7143" width="13.8571" height="13.8571" fill="#E92438"/>
<rect x="27.7143" width="13.8571" height="13.8571" fill="#E92438"/>
<rect x="27.7143" y="41.5714" width="13.8571" height="13.8571" fill="#E92438"/>
<rect x="13.8571" y="41.5714" width="13.8571" height="13.8571" fill="#9F1725"/>
<rect x="13.8571" y="55.4286" width="13.8571" height="13.8571" fill="#9F1725"/>
<rect x="13.8571" y="69.2857" width="13.8571" height="13.8571" fill="#9F1725"/>
<rect x="13.8571" y="83.1429" width="13.8571" height="13.8571" fill="#E92438"/>
<rect y="83.1429" width="13.8571" height="13.8571" fill="#9F1725"/>
<rect x="41.5714" y="83.1429" width="13.8571" height="13.8571" fill="#058997"/>
<rect x="27.7143" y="83.1429" width="13.8571" height="13.8571" fill="#E92438"/>
<rect x="27.7143" y="97" width="13.8571" height="13.8571" fill="#E92438"/>
<rect x="41.5714" y="41.5714" width="13.8571" height="13.8571" fill="#058997"/>
<rect x="41.5714" y="55.4286" width="13.8571" height="13.8571" fill="#24E9DD"/>
<rect x="27.7143" y="69.2857" width="13.8571" height="13.8571" fill="#E92438"/>
<rect x="41.5714" y="69.2857" width="13.8571" height="13.8571" fill="#058997"/>
<rect x="55.4286" y="69.2857" width="13.8571" height="13.8571" fill="#058997"/>
<rect x="69.2857" y="83.1429" width="13.8571" height="13.8571" fill="#058997"/>
<rect x="69.2857" y="13.8571" width="13.8571" height="13.8571" fill="#058997"/>
<rect x="55.4286" y="27.7143" width="13.8571" height="13.8571" fill="#058997"/>
<rect x="69.2857" y="41.5714" width="13.8571" height="13.8571" fill="#058997"/>
<rect x="69.2857" y="55.4286" width="13.8571" height="13.8571" fill="#058997"/>
<rect x="83.1429" y="69.2857" width="13.8571" height="13.8571" fill="#058997"/>
<rect x="83.1429" y="27.7143" width="13.8571" height="13.8571" fill="#058997"/>
<rect x="55.4286" y="55.4286" width="13.8571" height="13.8571" fill="#24E9DD"/>
<rect x="69.2857" y="69.2857" width="13.8571" height="13.8571" fill="#24E9DD"/>
<rect x="83.1429" y="83.1429" width="13.8571" height="13.8571" fill="#24E9DD"/>
<rect x="55.4286" y="41.5714" width="13.8571" height="13.8571" fill="#24E9DD"/>
<rect x="69.2857" y="27.7143" width="13.8571" height="13.8571" fill="#D9D9D9"/>
<rect x="69.2857" y="27.7143" width="13.8571" height="13.8571" fill="#24E9DD"/>
<rect x="83.1429" y="13.8571" width="13.8571" height="13.8571" fill="#24E9DD"/>
<rect x="27.7143" y="55.4286" width="13.8571" height="13.8571" fill="#E92438"/>
</svg>
